<svg xmlns="http://www.w3.org/2000/svg" xml:space="preserve" width="275.22" height="237.82" viewBox="0 0 72.82 62.92"><path d="m61.22 112.73 3.86-13.7 10.19-3.09 2.13-4.03 2.87-.79 3.02.14 32.65 4.06 4.07 4.11c1.36.82 2.69 1.14 4.16 4.65l3.46 27.32-23.04 10.44c-7.89-2.38-15.43-.9-21.48-6.51z" style="fill:#fefefe" transform="translate(-58.65 -88.32)"/><path d="M100.9 150.85c-1.99-.47-2.4-.99-2.63-3.32a19 19 0 0 0-1.47-5.88 4 4 0 0 1-.43-1.13c.04-.04 1.62.22 3.5.58l4.15.79c.6.1.8 0 1.05-.54.38-.84.12-1.04-1.85-1.45-2.57-.54-3.68-2.14-3.43-4.98.07-.82.4-3.05.73-4.96l.6-3.48 2.67.13c3.4.17 7.03-.27 9.48-1.16 5.78-2.08 7.92-5.86 9.75-17.22.34-2.08.7-3.92.81-4.1.3-.49 2.09 1.09 2.78 2.47.74 1.46.96 3.14.67 4.93-.22 1.33-.2 1.42.63 2.33a7 7 0 0 1 1.44 3.82c0 .13.34.58.77 1 1.41 1.42 1.79 4.52.78 6.5-.5.97-.53 1.24-.27 2.23.44 1.64.4 1.81-.62 2.94-.7.78-.93 1.26-.93 2 0 .54-.16 1.3-.37 1.69-.95 1.8-3.92 3.76-5.71 3.76-.63 0-.78.13-.94.85q-.4 1.8-2.7 3.95a11.4 11.4 0 0 1-10.74 2.74c-.84-.22-1.58-.4-1.64-.4-.07 0-.12.75-.13 1.65 0 1.88-.65 3.6-1.6 4.27q-1.1.76-4.34 0m-16.66-14.24c-.15-.04-1.16-.29-2.25-.54-2.7-.61-4.96-1.7-6.14-2.94-1.14-1.2-2.33-3.46-2.33-4.42 0-.95-.27-1.02-1.81-.43-2.9 1.1-5.54.43-8.22-2.08-2.05-1.92-3.15-5.16-2.45-7.18.26-.75.2-.95-.6-2.07A9 9 0 0 1 58.8 111a9.2 9.2 0 0 1 2.51-5.44c.92-1.06 1.35-1.82 1.48-2.6a10.6 10.6 0 0 1 2.74-5.17c2.07-1.87 5.55-3.1 7.9-2.79.95.12 1.13.03 2.53-1.33l1.5-1.47 1.03.3c2.13.64 2.36 1.7 1.4 6.55-1.18 6.05-1.42 7.81-1.43 10.83-.02 3.27.15 4.17 1.27 6.62 1.57 3.45 6.03 6.46 12 8.13 1.6.44 2.16.71 2.16 1.04 0 .24-.34 2.29-.77 4.55-1.14 6.13-1.5 6.53-5.88 6.5a32 32 0 0 1-3-.1m17.91-11.95c-.7-.15-.69-.34.22-5.25a2914 2914 0 0 0 2.77-15.35c.68-3.8.98-4.52 2.35-5.54.6-.45 1.12-.54 3.03-.54 2.29 0 2.3 0 2.37-.7.1-.85.07-.87-3.83-1.55l-5.9-1.05c-4.38-.8-9.09-1.61-9.4-1.64-.8-.06-.95.08-.87.87.07.77.2.86 1.5 1.2 1.81.46 3.33 1.3 3.75 2.09s.2 4.06-.53 7.92c-.3 1.6-.85 4.64-1.22 6.75-1.08 6.3-2 11.24-2.13 11.36-.18.19-3.06-.8-4.73-1.63-2.87-1.43-4.08-3-4.63-6.02-.34-1.86-.3-2.29.84-9.27.61-3.76.77-5.5.7-7.54-.09-2.49.1-2.66-.69-4.48-.77-1.76-1.55-1.18.75-3.13 2.34-2 5.99-2.96 8.77-2.3 1.46.34 3.64 1.33 4.61 2.09.47.36 1.12.43 3.84.37 1.8-.03 3.69.06 4.2.22a5.3 5.3 0 0 1 2.93 2.64c.47.92.55.96 1.54.83 2.78-.37 6.31 1.38 7.53 3.74.4.75.38.8-.77 2.14-2.07 2.42-2.9 4.88-4.35 12.82-1.24 6.79-2.72 9.23-6.26 10.32-1.7.53-5.25.88-6.39.63" style="fill:#9bcfc4" transform="translate(-58.65 -88.32)"/><path d="M101.21 150.8c-2.18-.53-2.82-1.16-2.82-2.83 0-1.38-.62-4.16-1.33-5.96l-.52-1.33 1 .16c.54.09 2.3.41 3.92.72 1.62.3 3.13.48 3.38.39.26-.1.43-.47.43-.94 0-.74-.08-.8-1.82-1.22-1.28-.31-2.04-.67-2.54-1.2-1.29-1.34-1.34-2.8-.28-8.33.23-1.17.4-2.46.4-2.89v-.76l2.15.15c4.2.28 9.45-.55 12.16-1.94 1.58-.8 3.76-3.2 4.82-5.32 1.36-2.7 1.9-4.64 2.84-10.28.45-2.69.85-5 .89-5.14s.62.26 1.3.88c1.66 1.54 2.17 3.07 1.96 6-.15 2.07-.12 2.2.52 2.8.85.8 1.41 2.14 1.41 3.39 0 .77.14 1.05.65 1.33 1.02.54 1.57 1.99 1.58 4.15.01 1.6-.08 2.04-.6 2.74-.53.7-.58.95-.33 1.49.16.35.3 1.12.3 1.71 0 .83-.18 1.24-.8 1.86-.6.6-.8 1.04-.8 1.77 0 2.38-2.69 4.96-5.54 5.32-1.13.14-1.2.2-1.63 1.41-.84 2.34-3.4 4.82-6.05 5.86-2.3.9-5.11 1-8.24.26-.68-.15-.69-.14-.82 1.65-.16 2.32-.93 3.9-2.09 4.3-1.02.36-1.22.34-3.5-.2m.47-26.79c.13-.57 1.45-7.9 3.47-19.14.78-4.37.9-4.79 1.62-5.6.88-1 1.62-1.2 3.88-1.12 2.14.08 2.16.07 2.4-.64q.26-.72 0-.98c-.13-.14-1.62-.5-3.29-.78-1.67-.3-4.4-.78-6.08-1.1-11.55-2.12-10.78-2.03-11-1.2-.27 1.1-.01 1.35 2.05 1.96 1.07.31 2.29.85 2.7 1.19 1.16.94 1.18 2.31.07 8.39l-2.02 11.24c-.59 3.35-1.13 6.28-1.2 6.52-.13.4-.26.4-1.39.06-2.15-.64-4.64-1.94-5.7-2.95-2.36-2.28-2.77-5.16-1.65-11.56 1.48-8.42 1.47-11.1-.04-14.07l-.73-1.45.92-.78c3.12-2.64 4.79-3.27 8.14-3.1 2.53.14 4.5.85 6.08 2.18.76.64.95.7 1.72.45.55-.18 1.93-.2 3.8-.07 3.36.23 4.15.6 5.19 2.49l.61 1.12 2.3.17a7.59 7.59 0 0 1 5.9 2.82c.67.98.86 1.9.4 1.9-.52 0-2.39 3.05-3.16 5.17a41 41 0 0 0-1.35 5.08l-1.05 5.43c-.86 4.5-2.24 6.68-5 7.94-1.46.66-2.15.8-4.72.92l-3.01.15z" style="fill:#93b7c6" transform="translate(-58.65 -88.32)"/><path d="M101.32 150.8c-1.67-.39-2.05-.58-2.45-1.24a4.4 4.4 0 0 1-.48-1.97c0-.66-.12-1.67-.27-2.25-.58-2.28-1.14-3.99-1.4-4.31-.3-.4.62-.3 4.43.5 2.76.58 3.83.63 3.99.17.4-1.22.3-1.34-1.67-1.95-2.17-.67-2.56-.92-3.14-2.04-.64-1.24-.4-4.1.85-10.37.1-.52.3-.55 3.75-.56 4.42-.03 6.69-.39 9.3-1.48 3.39-1.4 5.79-4.3 7.29-8.75.38-1.15 1.03-4.47 2.07-10.63l.36-2.1 1.2 1.11c1.65 1.51 2.22 3.3 1.98 6.13-.15 1.87-.12 2.09.4 2.55a6 6 0 0 1 1.55 3.5c0 .64.23 1.06.9 1.65.72.63.95 1.09 1.17 2.31.3 1.76.01 3.87-.64 4.59-.35.39-.38.62-.13 1.32.53 1.52.37 2.6-.5 3.4-.56.53-.8 1-.8 1.58 0 2.56-3.04 5.57-5.62 5.57q-1.5.02-1.52 1.13c0 1.33-2.8 4.5-4.94 5.58-2.4 1.22-6.5 1.7-8.37.99-1.52-.59-1.68-.46-1.85 1.54-.2 2.32-.93 3.83-2.07 4.23-1 .35-.92.35-3.4-.2m.82-26.44c-.38-.27-.4-.04.64-5.75l.9-5.02c1.37-7.88 2.47-13.32 2.8-13.83a5 5 0 0 1 1.25-1.15c.74-.47 1.14-.52 3-.39 2.33.16 2.48.08 2.48-1.3 0-.76.46-.65-9.85-2.39a32 32 0 0 1-2.91-.6c-.48-.15-1.58-.35-2.45-.44s-2.29-.34-3.14-.56c-1.71-.45-2.14-.3-2.36.84-.17.9.28 1.27 2.01 1.66 2.9.65 4.02 2.06 3.71 4.66-.08.73-.56 3.53-1.06 6.22-1.03 5.55-1.34 7.3-1.96 10.98-.23 1.39-.38 2.17-.93 5.08-.1.5-.24.56-1.1.43-1.27-.2-4.14-1.54-5.43-2.54-1.37-1.06-2.22-2.63-2.6-4.8-.34-1.97-.2-3.5.84-9.16.78-4.28.93-7.98.4-10a9 9 0 0 0-.95-2.43 3 3 0 0 1-.52-.96c.02-.28 2.27-2.12 3.16-2.6 3.32-1.73 6.04-1.94 9.08-.67 1.05.44 2.2 1.07 2.57 1.4.63.6.8.61 4.19.53 4.4-.12 5.39.24 6.59 2.36l.76 1.35 1.83.06c1.01.03 2.02.1 2.24.16.92.25 2.11.84 2.11 1.05 0 .13.18.24.39.24.5 0 1.44.98 1.85 1.93.3.68.25.82-.4 1.53-1.9 2.03-3.26 5.62-4.35 11.49-1.05 5.63-1.2 6.22-2 7.93-1.46 3.1-3.87 4.52-8.14 4.79-1.26.08-2.45.03-2.65-.1" style="fill:#95a6b3" transform="translate(-58.65 -88.32)"/><path d="M102.14 124.36c-.38-.27-.4-.04.64-5.75l.9-5.02c1.37-7.88 2.47-13.32 2.8-13.83a5 5 0 0 1 1.25-1.15c.74-.47 1.14-.52 3-.39 2.33.16 2.48.08 2.48-1.3 0-.76.46-.65-9.85-2.39a32 32 0 0 1-2.91-.6c-.48-.15-1.58-.35-2.45-.44s-2.29-.34-3.14-.56c-1.71-.45-2.14-.3-2.36.84-.17.9.28 1.27 2.01 1.66 2.9.65 4.02 2.06 3.71 4.66-.08.73-.56 3.53-1.06 6.22a640 640 0 0 0-2.08 11.51c-.23 1.31-.5 2.86-.58 3.44s-.25 1.2-.38 1.35c-.33.43-1.94.08-3.81-.82-3.32-1.6-4.62-3.2-5.17-6.33-.34-2-.18-3.67.88-9.28.37-1.97.56-4.06.57-6.48.03-3.7-.07-4.14-1.42-6.26-.33-.51-.27-.64.65-1.45 1.37-1.2 2.68-2.08 3.11-2.08.2 0 .47-.1.61-.22.5-.44 2.46-.84 4.07-.84 1.85 0 4.94 1.11 6.1 2.2.64.58.8.6 4.2.52 4.4-.12 5.39.24 6.59 2.36l.76 1.35 1.83.06c1.01.03 2.02.1 2.24.16.92.25 2.11.84 2.11 1.05 0 .13.18.24.39.24.5 0 1.44.98 1.85 1.93.3.68.25.82-.4 1.53-1.9 2.03-3.26 5.62-4.35 11.49-1.05 5.63-1.2 6.22-2 7.93-1.46 3.1-3.87 4.52-8.14 4.79-1.26.08-2.45.03-2.65-.1" style="fill:#6fb0c9" transform="translate(-58.65 -88.32)"/><path d="M102.16 124.41c-.37-.17-.45-1.16-.1-1.16.14 0 .23.2.2.46-.03.39.2.46 1.42.45.8 0 2.17-.1 3.05-.2 1.19-.14 1.43-.12.95.08-.72.31-5.02.6-5.52.37m6.29-.77c0-.08.26-.25.6-.38.32-.12 1.1-.6 1.73-1.06.9-.66 1.1-.94.96-1.38q-.18-.56.12-.37c.16.1.3 0 .3-.23s.09-.41.2-.41c.32 0 1.04-1.76 1.48-3.58.21-.87.4-1.35.4-1.05.06 1.68-1.38 5.19-2.77 6.72-.98 1.1-3.02 2.26-3.02 1.74m-15.48-.93-.8-.17.92-.11c.7-.09.96-.26 1.1-.77l.18-.66.03.7q.05 1.35-1.43 1.01m9.19-.4c0-.43.09-1.14.2-1.58l.2-.8v.8c0 .44-.09 1.15-.2 1.59l-.2.8zm-12-.61c-.8-.39-1.84-.99-2.32-1.34-.96-.69-2.42-2.79-2.4-3.45 0-.23.3.14.66.82a8 8 0 0 0 1.77 2.14c1.38 1.1 3.66 2.28 4.1 2.12.45-.15.43.1-.02.28-.2.07-1-.18-1.79-.57m4.28-1.68c0-.38.1-1.28.24-1.98s.33-1.72.41-2.27.24-1 .36-1-.01 1.23-.28 2.72c-.54 3.03-.7 3.57-.73 2.53m8.23-.74c0-.37.06-.52.13-.33.07.18.07.48 0 .66s-.13.03-.13-.33m.23-1.35c0-.37.07-.76.16-.85.09-.1.2-.56.25-1.04.04-.47.2-1.46.35-2.19l.27-1.32-.14 1.59a38 38 0 0 0-.14 2.01c0 .24-.17.9-.37 1.46-.31.87-.37.92-.38.34m-17.92-4.47c0-.8.05-1.13.1-.73.07.4.07 1.05 0 1.45-.05.4-.1.08-.1-.72m29.3.37q.03-.46.17-.16c.07.2.07.42-.02.5-.1.1-.15-.06-.14-.34m-18.47-1.17c0-.5.05-.72.12-.46s.07.67 0 .92c-.07.26-.12.05-.12-.46m8.18-.8c0-.36.06-.5.13-.32s.08.48 0 .66-.13.03-.13-.33m10.72-.79c.08-.8.27-1.57.4-1.72q.26-.22.07 1.06c-.26 1.88-.66 2.43-.47.66m-29.5.14c.01-.44.07-.59.14-.33.06.26.06.62-.01.8-.08.17-.13-.04-.13-.47m10.85-.14c0-.36.1-.95.22-1.32l.2-.66v.66c0 .37-.09.96-.2 1.32l-.22.67zm8.15-.64c0-.21.11-.45.24-.53.14-.08.18.09.1.38-.16.62-.34.7-.34.15m.29-1.63q.02-.46.16-.16c.08.2.07.42-.02.51s-.15-.07-.14-.35m-7.8-1.27c.16-1.66.6-3.2.6-2.14 0 .29-.16 1.24-.37 2.11l-.37 1.59zm18.67.9c0-.37.06-.51.13-.33s.07.48 0 .66-.13.03-.13-.33m-29.7-.59c.11-.73.15-.77.23-.24.06.34 0 .73-.14.87s-.19-.1-.1-.63m19.11-.2c0-.37.06-.52.14-.34.07.19.07.48 0 .67-.08.18-.14.03-.14-.34m10.83-.4c-.03-.66.81-3.04 1.07-3.04.1 0-.02.62-.28 1.38-.78 2.27-.77 2.24-.79 1.66m-10.55-1.06c0-.44.06-.58.13-.33.07.26.06.62-.01.8s-.13-.03-.12-.47m-18.93-.66c.1-.51.27-1.64.38-2.52l.21-1.58-.1 1.85a11 11 0 0 1-.38 2.51c-.25.59-.27.56-.11-.26m19.18-.8c0-.36.06-.5.14-.33.07.19.07.48 0 .66s-.14.04-.14-.33m-7.96-.81c.01-.5.13-1.14.26-1.43q.24-.54.08.79c-.19 1.57-.36 1.9-.34.64m19.57-.53c0-.24.23-.7.52-1.04.3-.33.53-.75.53-.92s.24-.53.53-.8c.67-.6.68-.33.04.6-.28.4-.75 1.14-1.06 1.65-.3.51-.56.74-.56.5m-11.12-1.59c0-.35.13-.82.27-1.03q.26-.44.09.52c-.21 1.15-.36 1.36-.36.51m-7.9-2c-.04-2.23-.36-3-1.26-3-.22 0-.33-.12-.24-.25.09-.14-.32-.4-.91-.58s-1.02-.37-.95-.43c.2-.2 1.94.47 2.64 1.02.9.72 1.28 2.2.98 3.98l-.23 1.42zm-11.1.57c0-.44.07-.58.13-.33.07.26.07.62 0 .8s-.13-.03-.13-.47m32.66-1.56c-.2-.49-.5-.97-.67-1.07-.16-.1-.29-.3-.29-.47 0-.4 1 .92 1.31 1.74.39 1.02.08.85-.35-.2m-12.34.24c0-.4 1.75-.93 2.97-.9l1.4.04-1.67.2c-.92.1-1.8.32-1.97.48-.3.31-.73.41-.73.18m-20.6-2.29a6 6 0 0 0-.43-1.65c-.22-.53-.31-.96-.2-.96.31 0 .93 2.25.78 2.83q-.12.5-.15-.22m30.53-.23c-.1-.14-.04-.26.11-.26.16 0 .28.12.28.26s-.05.27-.11.27c-.07 0-.2-.12-.28-.27m-1.46-.78c0-.14.18-.2.4-.1.22.08.4.2.4.25 0 .06-.18.1-.4.1s-.4-.11-.4-.25m-5.82-.11c0-.06.3-.16.66-.23s.66-.02.66.1-.3.23-.66.23-.66-.05-.66-.1M92.62 95c-.4-.35-.5-.67-.4-1.33.21-1.25.83-1.48 2.7-1 .86.23 1.9.42 2.32.43s1 .13 1.28.27c.75.35-1.7.05-3.67-.46-1.7-.43-2.18-.25-2.29.83-.1 1 .01 1.18.87 1.43q.91.25.3.27c-.32.01-.81-.18-1.1-.44m13.84.05-1.32-.36 1.44.14c1.43.14 2.88.64 1.73.6-.29-.01-1.12-.18-1.85-.38m-4.36-.73c-.8-.15-1.22-.32-.93-.36.3-.04 1.18.08 1.99.29 1.72.43 1.02.48-1.06.07m7.84-.76c-.21-.82-.05-.87.31-.08.17.36.2.66.07.66-.12 0-.3-.26-.38-.58M85 93.2c-.15-.38.69-1.28.95-1.02.06.06-.1.27-.37.47s-.4.49-.3.66c.1.16.12.3.03.3s-.22-.18-.31-.4m18.9-1.62c.2-.08.43-.07.52.02.08.09-.07.15-.35.14q-.46-.03-.16-.16m1.98-.01c.4-.06 1-.06 1.32 0 .33.07 0 .12-.73.11s-1-.05-.59-.11m-19.38-.19c0-.07.23-.26.53-.41.29-.16.52-.23.52-.15 0 .07-.23.25-.52.41s-.53.22-.53.15m12.43-.55c-.18-.22-.21-.4-.06-.4s.41.19.6.4c.17.23.2.4.06.4s-.42-.18-.6-.4m-7.2-1.9c.2-.07.43-.06.52.02.08.1-.07.15-.35.14q-.47-.02-.16-.16m3.18 0c.2-.07.42-.06.51.02.09.1-.07.15-.35.14q-.46-.02-.16-.16" style="fill:#74abbc" transform="translate(-58.65 -88.32)"/><path d="M100.8 150.52c-2-.47-2.41-.99-2.64-3.32a19 19 0 0 0-1.47-5.88 4 4 0 0 1-.43-1.13c.04-.04 1.61.22 3.5.58l4.15.79c.6.1.8 0 1.04-.55.38-.83.13-1.03-1.85-1.44-2.57-.54-3.68-2.14-3.43-4.98.07-.82.4-3.05.74-4.96l.6-3.48 2.67.13c3.39.17 7.02-.27 9.48-1.16 5.78-2.08 7.92-5.86 9.75-17.22.33-2.08.7-3.92.8-4.1.31-.49 2.1 1.09 2.79 2.47.73 1.46.96 3.14.66 4.93-.22 1.33-.2 1.42.64 2.33a7 7 0 0 1 1.43 3.82c0 .13.35.58.77 1 1.42 1.41 1.8 4.52.78 6.49-.5.98-.53 1.25-.26 2.24.44 1.64.4 1.81-.62 2.94-.7.78-.93 1.26-.93 2 0 .54-.17 1.3-.38 1.69-.94 1.8-3.92 3.76-5.7 3.76-.64 0-.79.13-.94.85q-.4 1.8-2.7 3.95a11.4 11.4 0 0 1-10.74 2.74c-.84-.22-1.58-.4-1.65-.4s-.12.74-.12 1.65c0 1.88-.66 3.6-1.61 4.27-.74.51-2.16.51-4.34 0m-16.68-14.24c-.14-.05-1.15-.29-2.25-.54-2.69-.61-4.96-1.7-6.13-2.94-1.14-1.2-2.33-3.46-2.33-4.42 0-.95-.27-1.02-1.82-.43-2.9 1.1-5.54.43-8.21-2.08-2.05-1.92-3.16-5.16-2.45-7.18.26-.75.2-.95-.6-2.07a9 9 0 0 1-1.64-5.95 9.2 9.2 0 0 1 2.51-5.44c.91-1.06 1.35-1.82 1.48-2.6a10.6 10.6 0 0 1 2.74-5.17c2.07-1.87 5.54-3.1 7.9-2.79.94.12 1.12.03 2.52-1.34l1.51-1.46 1.03.3c2.13.64 2.36 1.7 1.4 6.55-1.19 6.05-1.42 7.81-1.44 10.83-.02 3.27.16 4.17 1.27 6.62 1.58 3.45 6.03 6.46 12 8.13 1.6.44 2.17.71 2.17 1.04 0 .24-.35 2.29-.77 4.55-1.15 6.13-1.51 6.53-5.89 6.5a32 32 0 0 1-3-.1m17.92-11.95c-.7-.15-.7-.35.21-5.25a2914 2914 0 0 0 2.78-15.35c.68-3.8.98-4.52 2.35-5.54.6-.45 1.12-.54 3.02-.54 2.3 0 2.3 0 2.38-.7.1-.85.06-.87-3.83-1.55-1.58-.27-4.24-.75-5.9-1.05-4.39-.8-9.1-1.62-9.4-1.64-.81-.06-.96.08-.88.87.08.77.2.86 1.51 1.2 1.8.46 3.32 1.3 3.74 2.09s.2 4.06-.53 7.92c-.3 1.6-.85 4.64-1.21 6.75-1.09 6.3-2.01 11.23-2.13 11.36-.19.19-3.06-.8-4.74-1.63-2.87-1.43-4.08-3-4.62-6.02-.34-1.87-.3-2.29.83-9.27.62-3.76.78-5.5.7-7.54-.08-2.49-.01-2.93-.98-4.66-.75-1.34-1.25-1 1.05-2.95 2.33-2 5.98-2.96 8.77-2.3 1.46.34 3.64 1.33 4.6 2.09.48.36 1.13.43 3.84.37 1.8-.03 3.7.06 4.2.22a5.3 5.3 0 0 1 2.93 2.64c.47.92.56.96 1.54.83 2.79-.37 6.32 1.38 7.54 3.74.39.75.37.8-.77 2.14-2.07 2.42-2.91 4.88-4.36 12.81-1.24 6.8-2.71 9.24-6.26 10.33-1.7.53-5.25.88-6.38.63" style="fill:#9bcfc4" transform="translate(-58.65 -88.32)"/><path d="M101.1 150.47c-2.19-.53-2.82-1.16-2.82-2.83 0-1.38-.62-4.16-1.33-5.96l-.53-1.33 1 .16c.54.09 2.31.4 3.93.72 1.61.3 3.13.48 3.37.39.27-.1.44-.47.44-.94 0-.74-.09-.8-1.83-1.22-1.27-.31-2.03-.67-2.53-1.2-1.3-1.34-1.34-2.8-.28-8.33.22-1.17.4-2.47.4-2.89v-.76l2.15.15c4.19.28 9.44-.55 12.16-1.94 1.58-.8 3.75-3.2 4.81-5.32 1.37-2.7 1.9-4.64 2.84-10.28.45-2.7.85-5 .9-5.14.03-.14.62.26 1.29.88 1.67 1.54 2.17 3.07 1.97 6-.15 2.07-.13 2.2.51 2.8.86.8 1.42 2.14 1.42 3.39 0 .77.14 1.05.65 1.33 1.02.54 1.57 1.99 1.58 4.15.01 1.6-.09 2.04-.6 2.74-.53.7-.58.95-.34 1.49.17.35.3 1.12.3 1.7 0 .84-.18 1.25-.8 1.87-.59.6-.79 1.04-.8 1.76 0 2.39-2.68 4.97-5.53 5.33-1.13.14-1.2.2-1.64 1.41-.83 2.34-3.4 4.82-6.05 5.86-2.3.9-5.1 1-8.23.26-.68-.16-.7-.14-.82 1.65-.17 2.32-.93 3.9-2.1 4.3-1.02.35-1.21.34-3.5-.2m.46-26.79c.13-.57 1.46-7.9 3.47-19.14.78-4.37.9-4.79 1.62-5.6.89-1 1.62-1.2 3.88-1.12 2.14.08 2.16.07 2.41-.64q.26-.72 0-.98c-.14-.14-1.62-.5-3.3-.79-1.66-.29-4.4-.77-6.07-1.08-11.55-2.13-10.79-2.05-11-1.22-.27 1.11-.02 1.36 2.04 1.97 1.07.31 2.3.85 2.71 1.19 1.16.94 1.17 2.31.07 8.39-.52 2.84-1.43 7.9-2.02 11.24-.6 3.35-1.14 6.28-1.21 6.52-.12.4-.25.4-1.38.06-2.16-.65-4.65-1.94-5.7-2.95-2.36-2.28-2.77-5.16-1.65-11.56 1.47-8.42 1.47-11.1-.04-14.07l-.74-1.45.93-.78c3.11-2.64 4.78-3.27 8.14-3.1 2.53.14 4.5.85 6.08 2.18.76.64.95.7 1.72.45.55-.18 1.92-.2 3.79-.08 3.36.24 4.16.62 5.2 2.5l.6 1.12 2.31.17a7.59 7.59 0 0 1 5.9 2.82c.66.98.86 1.9.4 1.9-.53 0-2.4 3.05-3.16 5.17a41 41 0 0 0-1.36 5.08l-1.04 5.42c-.87 4.51-2.24 6.7-5.01 7.95-1.46.66-2.14.8-4.72.92l-3 .15z" style="fill:#93b7c6" transform="translate(-58.65 -88.32)"/><path d="M101.2 150.46c-1.66-.38-2.04-.57-2.44-1.23a4.4 4.4 0 0 1-.48-1.97c0-.66-.13-1.67-.28-2.25-.58-2.28-1.13-3.99-1.39-4.31-.3-.4.62-.3 4.43.5 2.76.58 3.83.63 3.98.17.41-1.23.31-1.34-1.67-1.95-2.17-.67-2.55-.92-3.13-2.04-.64-1.24-.4-4.1.84-10.38.1-.5.3-.54 3.76-.56 4.42-.02 6.68-.38 9.3-1.47 3.38-1.4 5.78-4.3 7.28-8.75.39-1.15 1.04-4.47 2.08-10.63l.35-2.1 1.21 1.11c1.64 1.51 2.22 3.3 1.98 6.13-.16 1.87-.12 2.09.4 2.55a6 6 0 0 1 1.54 3.5c0 .64.23 1.06.9 1.65.73.63.96 1.09 1.18 2.31.3 1.76.01 3.86-.65 4.59-.35.39-.37.62-.13 1.32.53 1.52.38 2.6-.5 3.4-.55.53-.79 1-.79 1.58 0 2.56-3.04 5.57-5.63 5.57q-1.49.02-1.51 1.13c0 1.33-2.8 4.5-4.94 5.58-2.4 1.22-6.5 1.7-8.38.99-1.52-.59-1.67-.46-1.84 1.54-.2 2.32-.93 3.83-2.07 4.23-1.01.35-.93.35-3.4-.2m.83-26.43c-.38-.27-.41-.04.63-5.75l.9-5.02c1.37-7.88 2.47-13.32 2.8-13.83a5 5 0 0 1 1.26-1.15c.73-.47 1.13-.52 3-.39 2.32.16 2.47.08 2.47-1.3 0-.76.47-.65-9.85-2.4a32 32 0 0 1-2.9-.6c-.48-.14-1.59-.34-2.46-.43s-2.28-.34-3.13-.56c-1.72-.45-2.15-.3-2.36.84-.17.9.27 1.27 2 1.66 2.9.65 4.03 2.06 3.72 4.66-.09.73-.57 3.53-1.07 6.22-1.02 5.55-1.34 7.3-1.95 10.98-.24 1.38-.38 2.17-.94 5.08-.1.5-.23.56-1.1.42-1.26-.19-4.14-1.53-5.42-2.53-1.38-1.06-2.22-2.63-2.6-4.8-.34-1.97-.2-3.5.83-9.16.78-4.28.93-7.98.41-10a9 9 0 0 0-.96-2.43 3 3 0 0 1-.51-.96c.01-.28 2.26-2.12 3.16-2.6 3.31-1.73 6.04-1.94 9.08-.67 1.04.43 2.2 1.07 2.56 1.4.64.6.8.61 4.2.53 4.4-.12 5.38.23 6.58 2.36l.76 1.35 1.84.06c1 .03 2.01.1 2.23.16.93.25 2.12.84 2.12 1.05 0 .13.17.24.38.24.5 0 1.44.98 1.86 1.93.29.68.25.82-.4 1.53-1.91 2.03-3.27 5.62-4.36 11.48-1.04 5.64-1.19 6.23-2 7.94-1.45 3.1-3.86 4.52-8.14 4.79-1.26.07-2.45.03-2.64-.1" style="fill:#95a6b3" transform="translate(-58.65 -88.32)"/><path d="M102.03 124.03c-.38-.27-.41-.04.63-5.75l.9-5.02c1.37-7.88 2.47-13.32 2.8-13.83a5 5 0 0 1 1.26-1.15c.73-.47 1.13-.52 3-.39 2.32.16 2.47.08 2.47-1.3 0-.76.47-.65-9.85-2.4a32 32 0 0 1-2.9-.6c-.48-.14-1.59-.34-2.46-.43s-2.28-.34-3.13-.56c-1.72-.45-2.15-.3-2.36.84-.17.9.27 1.27 2 1.66 2.9.65 4.03 2.06 3.72 4.66-.09.73-.57 3.53-1.07 6.22a640 640 0 0 0-2.07 11.51c-.24 1.31-.5 2.86-.58 3.44s-.26 1.2-.38 1.35c-.33.42-1.94.08-3.82-.83-3.32-1.59-4.62-3.18-5.16-6.32-.34-2-.19-3.67.87-9.28.38-1.97.56-4.06.58-6.48.02-3.7-.08-4.14-1.43-6.26-.32-.51-.27-.64.66-1.45 1.36-1.2 2.67-2.08 3.1-2.08.2 0 .48-.1.62-.22.5-.44 2.46-.84 4.07-.84 1.84 0 4.93 1.11 6.1 2.2.64.58.8.6 4.2.52 4.4-.12 5.38.23 6.58 2.36l.76 1.35 1.84.06c1 .03 2.01.1 2.23.16.93.25 2.12.84 2.12 1.05 0 .13.17.24.38.24.5 0 1.44.98 1.86 1.93.29.68.25.82-.4 1.53-1.91 2.03-3.27 5.62-4.36 11.48-1.04 5.64-1.19 6.23-2 7.94-1.45 3.1-3.86 4.52-8.14 4.79-1.26.07-2.45.03-2.64-.1" style="fill:#6fb0c9" transform="translate(-58.65 -88.32)"/><path d="M102.05 124.08c-.38-.17-.46-1.17-.1-1.17.13 0 .22.21.2.47-.03.39.2.46 1.42.45.8 0 2.17-.1 3.04-.2 1.2-.15 1.43-.13.96.08-.73.31-5.02.6-5.52.37m6.28-.78c0-.07.27-.24.6-.37.33-.12 1.1-.6 1.73-1.06.9-.66 1.1-.94.97-1.38q-.18-.56.11-.37c.17.1.3 0 .3-.23s.1-.42.21-.42c.31 0 1.04-1.75 1.48-3.57.2-.87.39-1.35.4-1.06.06 1.7-1.38 5.2-2.77 6.73-.99 1.1-3.03 2.26-3.03 1.73m-15.48-.92-.79-.17.92-.11c.7-.09.95-.26 1.1-.77l.18-.66.02.69q.06 1.35-1.43 1.02m9.2-.4c0-.43.09-1.14.2-1.58l.2-.8v.8c0 .44-.1 1.15-.2 1.59l-.2.8zm-12-.61c-.8-.39-1.84-1-2.33-1.34-.96-.69-2.41-2.79-2.4-3.45.01-.23.3.14.66.82a8 8 0 0 0 1.77 2.14c1.39 1.1 3.66 2.28 4.11 2.12s.43.1-.02.28c-.2.07-1-.19-1.8-.57m4.28-1.68c-.01-.39.1-1.28.24-1.98s.32-1.72.4-2.27.25-1 .36-1c.12 0 0 1.23-.27 2.72-.55 3.03-.7 3.57-.73 2.53m8.22-.74c0-.37.06-.52.14-.34.07.19.07.48 0 .67-.08.18-.14.03-.14-.33m.24-1.35c0-.38.06-.76.15-.85.1-.1.2-.56.25-1.04.05-.47.2-1.46.35-2.19l.28-1.32-.15 1.59a38 38 0 0 0-.14 2.01c0 .24-.16.9-.36 1.46-.31.87-.37.92-.38.34m-17.93-4.48c0-.8.05-1.12.11-.72s.06 1.05 0 1.45-.1.07-.1-.73m29.31.38q.03-.46.16-.16c.08.19.07.42-.02.5-.08.1-.15-.06-.14-.34m-18.48-1.17c0-.5.06-.72.12-.46.07.25.07.67 0 .92-.06.26-.12.05-.12-.46m8.19-.8c0-.36.06-.5.13-.32s.07.48 0 .66-.13.03-.13-.33m10.71-.79c.1-.8.27-1.57.41-1.72q.25-.22.07 1.06c-.27 1.88-.66 2.43-.48.66m-29.49.14c0-.44.07-.59.13-.33.07.26.07.61 0 .8-.08.17-.13-.04-.13-.47m10.85-.14c0-.36.1-.96.21-1.32l.21-.66v.66c0 .36-.1.96-.2 1.32l-.22.66zm8.15-.64c0-.21.1-.45.24-.53s.18.09.1.38c-.16.62-.34.7-.34.15m.28-1.63q.03-.46.16-.16c.08.2.07.42-.02.5-.08.1-.15-.06-.14-.34m-7.79-1.28c.16-1.65.6-3.2.6-2.14 0 .3-.16 1.25-.37 2.12l-.38 1.59zm18.66.9c0-.36.06-.5.14-.32.07.18.07.48 0 .66s-.14.03-.14-.33m-29.7-.58c.12-.73.16-.77.24-.24.05.34-.01.73-.14.87-.15.14-.19-.1-.1-.63m19.12-.2c0-.37.06-.52.13-.34s.08.48 0 .66-.13.04-.13-.33m10.83-.4c-.03-.66.8-3.05 1.07-3.05.1 0-.03.63-.29 1.4-.78 2.26-.76 2.23-.78 1.65m-10.56-1.06c0-.44.07-.58.14-.33.06.26.06.62-.01.8-.08.18-.13-.04-.13-.47m-18.93-.66c.1-.51.27-1.64.39-2.52l.2-1.58-.1 1.85a11 11 0 0 1-.38 2.51c-.25.59-.26.56-.1-.26m19.19-.8c0-.36.06-.5.13-.33.08.18.08.48 0 .66s-.13.04-.13-.33m-7.96-.81c0-.5.13-1.14.26-1.44q.24-.54.08.8c-.2 1.57-.37 1.9-.34.64m19.56-.54c0-.23.24-.7.53-1.03s.53-.75.53-.92.24-.53.53-.8c.66-.6.68-.33.03.6-.27.4-.74 1.14-1.05 1.65s-.56.74-.57.5m-11.1-1.58c0-.35.11-.82.25-1.04.19-.27.21-.12.1.53-.21 1.14-.36 1.36-.36.51m-7.92-2c-.03-2.23-.36-3-1.26-3-.21 0-.32-.12-.23-.26.08-.13-.33-.4-.92-.57-.58-.17-1.01-.37-.95-.43.2-.2 1.94.47 2.64 1.02.91.72 1.28 2.2.99 3.98l-.24 1.42zm-11.1.57c.01-.44.07-.59.14-.33s.06.62-.01.8c-.07.17-.13-.04-.12-.47m32.66-1.56c-.2-.49-.5-.97-.66-1.07s-.3-.31-.3-.47c0-.4 1 .92 1.32 1.74.38 1.02.08.85-.36-.2m-12.33.24c0-.4 1.75-.93 2.96-.9l1.4.04-1.66.19c-.92.1-1.8.33-1.97.5-.31.3-.73.4-.73.17m-20.6-2.29a6 6 0 0 0-.44-1.65c-.22-.53-.3-.96-.19-.96.3 0 .93 2.25.78 2.82q-.13.52-.16-.2m30.52-.23c-.09-.14-.04-.26.12-.26.15 0 .28.12.28.26s-.05.27-.12.27-.19-.12-.28-.27m-1.45-.78c0-.15.17-.2.4-.1.21.08.39.2.39.25 0 .06-.18.1-.4.1s-.4-.11-.4-.25m-5.82-.11c0-.06.3-.16.66-.23s.66-.03.66.1c0 .12-.3.23-.66.23s-.66-.05-.66-.1m-17.15-.63c-.4-.35-.5-.67-.4-1.33.2-1.25.82-1.48 2.7-1 .86.23 1.9.42 2.32.43s.99.13 1.28.27c.75.35-1.7.05-3.68-.46-1.7-.43-2.17-.25-2.28.83-.1 1 0 1.18.87 1.43q.9.25.3.27c-.32.01-.82-.19-1.11-.44m13.84.05-1.32-.36 1.44.14c1.43.13 2.88.64 1.73.6-.3-.01-1.12-.18-1.85-.38m-4.37-.73c-.8-.16-1.21-.32-.92-.36.29-.05 1.18.08 1.98.28 1.72.44 1.02.49-1.06.08m7.85-.76c-.22-.83-.05-.87.3-.08.17.36.2.66.08.66s-.3-.26-.38-.58m-24.95-.36c-.15-.38.68-1.28.94-1.02.07.06-.1.27-.37.47-.26.2-.4.49-.3.66.11.16.12.3.04.3-.09 0-.23-.18-.31-.4m18.9-1.62c.2-.08.42-.07.51.02s-.07.15-.35.14q-.46-.03-.16-.16m1.98-.01c.4-.06 1-.06 1.32 0 .32.07 0 .12-.73.11s-1-.05-.6-.11m-19.39-.19c0-.07.24-.26.53-.42s.53-.22.53-.15-.24.26-.53.42-.53.22-.53.15m12.44-.55c-.19-.22-.22-.4-.07-.4s.42.18.6.4.2.4.06.4-.41-.18-.6-.4m-7.2-1.9c.2-.07.42-.06.51.02.09.1-.07.15-.35.14q-.46-.02-.16-.16m3.18 0c.19-.07.42-.06.5.02.1.1-.06.15-.34.14q-.46-.02-.16-.16" style="fill:#74abbc" transform="translate(-58.65 -88.32)"/></svg>